# xmcd
#
# Track frame offsets:
# 150
# 4422
# 21662
# 38840
# 55225
# 69237
# 85347
# 103705
# 118990
# 136400
# 151200
# 171100
# 188520
# 210252
# 228552
#
# Disc length: 3315 seconds
#
# Revision: 0
# Processed by: cddbd v1.5.1PL2 Copyright (c) Steve Scherf et al.
# Submitted via: Audion 3.0.2 (http://www.panic.com/audion/)
#
DISCID=c80cf10f
DTITLE=Chris Brown - Chris Brown
DYEAR=1900
DGENRE=
TTITLE0=Intro
TTITLE1=Run It
TTITLE2=Yo Excuse Me Miss
TTITLE3=Young Love
TTITLE4=Gimme That
TTITLE5=Ya Man Aint Me
TTITLE6=Winner
TTITLE7=Aint No Way
TTITLE8=Whats My Name
TTITLE9=Is This Love
TTITLE10=Poppin
TTITLE11=Just Fine
TTITLE12=Say Goodbye
TTITLE13=Run It-Remix
TTITLE14=Thank You
EXTD=
EXTT0=
EXTT1=
EXTT2=
EXTT3=
EXTT4=
EXTT5=
EXTT6=
EXTT7=
EXTT8=
EXTT9=
EXTT10=
EXTT11=
EXTT12=
EXTT13=
EXTT14=
PLAYORDER=
